<svg width="32" height="32" viewBox="0 0 32 32" fill="none" xmlns="http://www.w3.org/2000/svg">
<path d="M20.5922 4.91345C18.0273 3.85102 15.1733 3.71081 12.5166 4.51672C9.85988 5.32262 7.56479 7.02478 6.02238 9.33315C4.47998 11.6415 3.78568 14.4133 4.0578 17.1762L10.0289 16.5881C9.89285 15.2067 10.24 13.8208 11.0112 12.6666C11.7824 11.5124 12.9299 10.6613 14.2583 10.2584C15.5867 9.85541 17.0136 9.92551 18.2961 10.4567C19.5786 10.9879 20.6372 11.9474 21.2915 13.1716C21.9459 14.3958 22.1555 15.8091 21.8847 17.1705C21.6139 18.532 20.8794 19.7574 19.8064 20.6381C18.7333 21.5187 17.3881 22 16 22V28C18.7763 28 21.4666 27.0374 23.6127 25.2761C25.7588 23.5149 27.2278 21.064 27.7694 18.3411C28.311 15.6182 27.8918 12.7917 26.583 10.3432C25.2743 7.8948 23.1571 5.97588 20.5922 4.91345Z" fill="white"/>
<path d="M16 18L6 25L16 32V18Z" fill="white"/>
</svg>
